<?xml version="1.0" encoding="UTF-8"?>
<svg id="Layer_1" data-name="Layer 1" xmlns="http://www.w3.org/2000/svg" viewBox="0 0 1300 900">
  <defs>
    <style>
      .cls-1 {
        fill: #0051c6;
      }

      .cls-2 {
        fill: #48a8ff;
      }

      .cls-3 {
        fill: #f1f2f2;
      }

      .cls-4 {
        fill: #88c7ff;
      }
    </style>
  </defs>
  <rect class="cls-3" x="-17.79" y="-12.31" width="1335.57" height="924.63"/>
  <g>
    <g>
      <path class="cls-1" d="M657.89,438.23c-.43-.47-.76-.87-1.08-1.34,0,.56.02,1.02.02,1.6v9.08h-1.8v-13.4h1.43l8.5,9.34c.43.47.76.87,1.08,1.34,0-.54-.02-1.02-.02-1.6v-9.08h1.81v13.4h-1.43l-8.5-9.34Z"/>
      <path class="cls-1" d="M677.71,433.95c4.86,0,8.19,2.81,8.19,6.92s-3.33,6.92-8.19,6.92-8.21-2.81-8.21-6.92,3.33-6.92,8.21-6.92ZM677.71,446.19c3.76,0,6.34-2.16,6.34-5.32s-2.59-5.32-6.34-5.32-6.38,2.16-6.38,5.32,2.59,5.32,6.38,5.32Z"/>
      <path class="cls-1" d="M690.13,447.57h-1.8v-13.4h5.12c3.44,0,5.51,1.53,5.51,4.07,0,1.88-1.36,3.31-3.61,3.8l1.81,3.2c.39.67.86,1.04,1.53,1.04.41,0,.76-.06.93-.09v1.45c-.28.09-.71.15-1.23.15-1.38,0-2.21-.63-2.96-2.07l-1.79-3.44h-3.5v5.28ZM690.13,435.64v5.23h3.39c2.27,0,3.63-.99,3.63-2.62s-1.41-2.6-3.76-2.6h-3.26Z"/>
      <path class="cls-1" d="M706.72,435.64v11.93h-1.79v-11.93h-4.93v-1.47h11.67v1.47h-4.95Z"/>
      <path class="cls-1" d="M723.96,447.57v-6.05h-8.52v6.05h-1.8v-13.4h1.8v5.88h8.52v-5.88h1.79v13.4h-1.79Z"/>
      <path class="cls-1" d="M748.82,436.57c-.69-.3-2.62-1.02-4.84-1.02-3.93,0-6.61,2.16-6.61,5.32s2.68,5.32,6.61,5.32c1.86,0,3.5-.41,4.95-1v1.66c-.93.37-2.73.95-4.95.95-5.01,0-8.43-2.81-8.43-6.92s3.42-6.92,8.43-6.92c2.59,0,4.22.69,4.84.97v1.66Z"/>
      <path class="cls-1" d="M758.07,433.95c4.86,0,8.19,2.81,8.19,6.92s-3.33,6.92-8.19,6.92-8.21-2.81-8.21-6.92,3.33-6.92,8.21-6.92ZM758.07,446.19c3.76,0,6.34-2.16,6.34-5.32s-2.59-5.32-6.34-5.32-6.38,2.16-6.38,5.32,2.59,5.32,6.38,5.32Z"/>
      <path class="cls-1" d="M780.14,442.9c0,3.05-2.27,4.89-6.07,4.89s-6.05-1.84-6.05-4.89v-8.73h1.79v8.6c0,2.14,1.6,3.42,4.26,3.42s4.26-1.28,4.26-3.42v-8.6h1.8v8.73Z"/>
      <path class="cls-1" d="M785.88,438.23c-.43-.47-.76-.87-1.08-1.34,0,.56.02,1.02.02,1.6v9.08h-1.8v-13.4h1.43l8.5,9.34c.43.47.76.87,1.08,1.34,0-.54-.02-1.02-.02-1.6v-9.08h1.81v13.4h-1.43l-8.5-9.34Z"/>
      <path class="cls-1" d="M804.15,435.64v11.93h-1.79v-11.93h-4.93v-1.47h11.67v1.47h-4.95Z"/>
      <path class="cls-1" d="M812.19,434.17l4.76,6.59,4.74-6.59h2.01l-5.86,8.07v5.32h-1.79v-5.32l-5.86-8.07h1.99Z"/>
      <path class="cls-1" d="M659.59,452.41h1.28l6.72,13.42h-1.88l-1.66-3.27h-7.65l-1.64,3.27h-1.88l6.7-13.42ZM663.35,461.12l-3.11-6.44-3.13,6.44h6.23Z"/>
      <path class="cls-1" d="M669.1,465.83v-13.4h9.73v1.47h-7.93v4.41h6.72v1.47h-6.72v4.58h8.26v1.47h-10.07Z"/>
      <path class="cls-1" d="M680.02,465.27v-1.71c1.4.58,3.09.93,4.5.93,2.29,0,3.65-.73,3.65-1.94s-.86-1.95-3.67-2.74c-3.18-.89-4.52-2.01-4.52-4.04,0-2.23,1.95-3.57,5.21-3.57,1.34,0,2.81.26,3.91.69v1.66c-1.1-.48-2.53-.78-3.83-.78-2.2,0-3.52.72-3.52,1.95,0,1.12.76,1.9,3.63,2.72,3.18.91,4.56,1.97,4.56,3.98,0,2.27-2.01,3.63-5.34,3.63-1.54,0-3.27-.3-4.58-.78Z"/>
      <path class="cls-1" d="M696.3,453.9v11.93h-1.79v-11.93h-4.93v-1.47h11.67v1.47h-4.95Z"/>
      <path class="cls-1" d="M713.17,465.83v-6.05h-8.52v6.05h-1.8v-13.4h1.8v5.88h8.52v-5.88h1.79v13.4h-1.79Z"/>
      <path class="cls-1" d="M716.95,465.83v-13.4h9.73v1.47h-7.93v4.41h6.72v1.47h-6.72v4.58h8.26v1.47h-10.07Z"/>
      <path class="cls-1" d="M734.89,453.9v11.93h-1.79v-11.93h-4.93v-1.47h11.67v1.47h-4.95Z"/>
      <path class="cls-1" d="M741.81,465.83v-13.4h1.81v13.4h-1.81Z"/>
      <path class="cls-1" d="M758.91,454.83c-.69-.3-2.62-1.02-4.84-1.02-3.93,0-6.61,2.16-6.61,5.32s2.68,5.32,6.61,5.32c1.86,0,3.5-.41,4.95-1v1.66c-.93.37-2.73.95-4.95.95-5.01,0-8.43-2.81-8.43-6.92s3.42-6.92,8.43-6.92c2.59,0,4.22.69,4.84.97v1.66Z"/>
      <path class="cls-1" d="M760.59,465.27v-1.71c1.4.58,3.09.93,4.5.93,2.29,0,3.65-.73,3.65-1.94s-.86-1.95-3.67-2.74c-3.18-.89-4.52-2.01-4.52-4.04,0-2.23,1.95-3.57,5.21-3.57,1.34,0,2.81.26,3.91.69v1.66c-1.1-.48-2.53-.78-3.83-.78-2.2,0-3.52.72-3.52,1.95,0,1.12.76,1.9,3.63,2.72,3.18.91,4.56,1.97,4.56,3.98,0,2.27-2.01,3.63-5.34,3.63-1.54,0-3.27-.3-4.58-.78Z"/>
      <path class="cls-1" d="M801.87,465.83v-13.4h1.8v13.4h-1.8Z"/>
      <path class="cls-1" d="M809.03,456.38c-.39-.45-.65-.91-.95-1.36.02.56.02,1.12.02,1.69v9.12h-1.75v-13.4h1.54l5.97,7.09,5.99-7.09h1.53v13.4h-1.75v-9.12c0-.56,0-1.13.02-1.69-.3.45-.56.93-.93,1.36l-4.86,5.6-4.84-5.6Z"/>
      <path class="cls-1" d="M825.95,460.58v5.25h-1.81v-13.4h4.73c3.37,0,5.4,1.53,5.4,4.07s-2.03,4.07-5.4,4.07h-2.92ZM825.95,453.9v5.23h3c2.18,0,3.48-.99,3.48-2.62s-1.36-2.6-3.61-2.6h-2.86Z"/>
      <path class="cls-1" d="M836.24,465.83v-13.4h1.8v11.93h7.05v1.47h-8.86Z"/>
      <path class="cls-1" d="M852.76,452.41h1.28l6.72,13.42h-1.88l-1.66-3.27h-7.65l-1.64,3.27h-1.88l6.7-13.42ZM856.52,461.12l-3.11-6.44-3.13,6.44h6.23Z"/>
      <path class="cls-1" d="M865.14,456.49c-.43-.47-.76-.87-1.08-1.34,0,.56.02,1.02.02,1.6v9.08h-1.81v-13.4h1.43l8.5,9.34c.43.47.76.87,1.08,1.34,0-.54-.02-1.02-.02-1.6v-9.08h1.8v13.4h-1.43l-8.5-9.34Z"/>
      <path class="cls-1" d="M883.41,453.9v11.93h-1.79v-11.93h-4.93v-1.47h11.67v1.47h-4.95Z"/>
      <path class="cls-1" d="M889.16,465.27v-1.71c1.4.58,3.09.93,4.5.93,2.29,0,3.65-.73,3.65-1.94s-.86-1.95-3.67-2.74c-3.18-.89-4.52-2.01-4.52-4.04,0-2.23,1.95-3.57,5.21-3.57,1.34,0,2.81.26,3.91.69v1.66c-1.1-.48-2.53-.78-3.83-.78-2.2,0-3.52.72-3.52,1.95,0,1.12.76,1.9,3.63,2.72,3.18.91,4.56,1.97,4.56,3.98,0,2.27-2.01,3.63-5.34,3.63-1.55,0-3.28-.3-4.58-.78Z"/>
    </g>
    <rect class="cls-1" x="635.43" y="419.37" width=".91" height="61.26"/>
    <g>
      <path class="cls-1" d="M401.09,440.8l.99,2.24,2.45,5.54s-.02-.08-.04-.13c.02.07.04.14.07.21l-.04-.08s.01.05.03.08l2.53,5.74,8.19,18.53c.36.81,1.16,1.33,2.05,1.33.5,0,.96-.16,1.34-.45.37-.28.66-.68.8-1.16l3.96-13.66-1.88-1.61-4.71-4.03-6.4-5.5-8.47-7.28-1.03-.88c-.05.37,0,.75.15,1.11"/>
      <path class="cls-2" d="M431.2,432.05l.93.73,5.53,4.38,10.09,8h0c.54.38,1.05.78,1.52,1.22l4.01,3.17c1.53,1.21,2.4,3.05,2.4,4.97,0,.42-.04.84-.13,1.26l1.37-3.34,5.14-12.51c.34-.84.09-1.81-.63-2.38l-14.73-11.51c-.75-.59-1.8-.66-2.64-.18l-10.43,6.06c-.75.43-1.65.5-2.44.16"/>
      <path class="cls-4" d="M400.94,439.69l1.03.88,8.47,7.28,11.11,9.53,1.88,1.61,4.37,3.76,11.54,9.91c3.37,2.9,8.59,1.65,10.29-2.47l3.25-7.89c.05-.12.1-.25.15-.37l2.53-6.15c.09-.42.13-.84.13-1.26,0-1.91-.87-3.76-2.4-4.97l-4.01-3.17-1.52-1.21h0s-10.09-8-10.09-8l-5.53-4.38-.93-.73-7.54-5.97c-.79-.63-1.89-.68-2.74-.13l-19.07,12.32c-.51.33-.83.85-.91,1.42"/>
    </g>
    <path class="cls-1" d="M584.84,431.44h-5.1l-17.59,37.05h6.7l3.95-8.43,2.23-4.97,7.29-15.83,7.29,15.83h6.52l-11.29-23.64Z"/>
    <path class="cls-1" d="M602.52,468.5h-6.73c-2.45-5.15-7.65-8.43-13.36-8.43h-9.63l2.23-4.97h6.24c9.08,0,17.34,5.22,21.25,13.41h0Z"/>
    <path class="cls-1" d="M608.03,468.5v-37.05h1.61c2.64,0,4.78,2.14,4.78,4.78v32.27h-6.39Z"/>
    <path class="cls-1" d="M793.14,458.96c.18,1.62-.25,3.13-1.6,4.61l3.13,2.25h-2.54l-1.8-1.23c-1.46.95-3.44,1.45-5.74,1.45-3.89,0-6.57-1.45-6.57-3.59,0-1.88,2.12-2.98,4.23-3.68-1.51-1.04-2.45-1.95-2.45-3.35,0-1.92,1.98-3.22,4.86-3.22s4.86,1.25,4.86,3.05c0,2.08-2.7,3.28-4.39,3.81l5.04,3.35c.88-1.04,1.22-2.25,1.06-3.46h1.91ZM783.42,459.73c-1.71.48-3.35,1.27-3.35,2.59,0,1.4,1.85,2.34,4.55,2.34,1.71,0,3.26-.41,4.39-1.12l-5.58-3.81ZM783.91,458.11c1.42-.47,3.69-1.34,3.69-2.72,0-1.06-1.19-1.79-2.95-1.79s-2.95.73-2.95,1.79.81,1.75,2.21,2.72Z"/>
    <path class="cls-1" d="M490.69,445.08c-1.09-1.23-2.03-2.36-2.92-3.6,0,1.54.05,2.93.05,4.52v22.4h-6.39v-36.99h5.3l20.75,23.53c1.14,1.23,2.03,2.41,2.92,3.65,0-1.49-.05-2.83-.05-4.37v-22.81h6.44v36.99h-5.3l-20.8-23.33Z"/>
    <path class="cls-1" d="M557.84,439.17c-2.23-.98-6.98-2.72-12.48-2.72-9.71,0-16.3,5.45-16.3,13.46s6.54,13.46,16.15,13.46c4.95,0,9.16-1.08,12.93-2.67v5.81c-2.58,1.13-7.28,2.57-13.13,2.57-13.32,0-22.44-7.76-22.44-19.17s9.16-19.17,22.54-19.17c6.24,0,10.8,1.7,12.73,2.62v5.81Z"/>
  </g>
</svg>